<?xml version="1.0" encoding="UTF-8" standalone="no"?>
<!-- Created with Inkscape (http://www.inkscape.org/) -->

<svg
   width="210.73415mm"
   height="31.917147mm"
   viewBox="0 0 210.73415 31.917147"
   version="1.1"
   id="svg1646"
   inkscape:version="1.1.1 (3bf5ae0d25, 2021-09-20, custom)"
   sodipodi:docname="logo.svg"
   xmlns:inkscape="http://www.inkscape.org/namespaces/inkscape"
   xmlns:sodipodi="http://sodipodi.sourceforge.net/DTD/sodipodi-0.dtd"
   xmlns="http://www.w3.org/2000/svg"
   xmlns:svg="http://www.w3.org/2000/svg">
  <sodipodi:namedview
     id="namedview1648"
     pagecolor="#1f1f1f"
     bordercolor="#666666"
     borderopacity="1.0"
     inkscape:pageshadow="2"
     inkscape:pageopacity="1"
     inkscape:pagecheckerboard="true"
     inkscape:document-units="mm"
     showgrid="false"
     inkscape:zoom="0.55589226"
     inkscape:cx="425.44216"
     inkscape:cy="-229.36099"
     inkscape:window-width="1920"
     inkscape:window-height="1007"
     inkscape:window-x="0"
     inkscape:window-y="0"
     inkscape:window-maximized="1"
     inkscape:current-layer="g1585" />
  <defs
     id="defs1643" />
  <g
     inkscape:label="Layer 1"
     inkscape:groupmode="layer"
     id="layer1"
     transform="translate(2.083423,-114.45488)">
    <g
       id="g1585"
       transform="translate(-780.84276,82.03087)">
      <g
         aria-label="OpenSuspect"
         id="text1575"
         style="font-size:32.4978px;line-height:1.25;stroke-width:0.812" />
      <g
         id="g1965">
        <path
           d="m 790.96443,59.304001 q -3.44477,0 -5.9471,-1.462401 -2.50233,-1.494899 -3.86723,-4.257212 -1.33241,-2.762313 -1.33241,-6.564555 0,-3.867238 1.3649,-6.662049 1.39741,-2.794811 3.89974,-4.289709 2.50233,-1.527397 5.8821,-1.527397 3.37977,0 5.84961,1.527397 2.50233,1.494898 3.86723,4.289709 1.36491,2.762313 1.36491,6.629551 0,3.802243 -1.36491,6.564556 -1.33241,2.762312 -3.83474,4.257211 -2.50233,1.494899 -5.8821,1.494899 z m 0,-3.997229 q 2.66482,0 3.89974,-1.91737 1.23491,-1.949868 1.23491,-6.337071 0,-4.484696 -1.26741,-6.49956 -1.23492,-2.047361 -3.86724,-2.047361 -2.66482,0 -3.93223,2.047361 -1.26742,2.047361 -1.26742,6.49956 0,4.354705 1.23492,6.304573 1.26741,1.949868 3.96473,1.949868 z"
           id="path1768"
           style="font-size:32.4978px;line-height:1.25;stroke-width:0.812"
           transform="translate(-6.3333332e-6)" />
        <path
           d="m 809.61817,41.75519 q 0.71495,0 0.71495,0.649956 v 0.974933 q 0,0.194987 0.13,0.227485 0.12999,0 0.32497,-0.162489 0.51997,-0.487467 1.13743,-0.942436 0.64995,-0.454969 1.52739,-0.747449 0.87744,-0.324978 2.07986,-0.324978 1.91737,0 3.41227,0.974934 1.4949,0.942436 2.37234,2.892304 0.87744,1.91737 0.87744,4.939665 0,3.119789 -0.90994,5.134652 -0.90994,2.014864 -2.46983,2.989798 -1.55989,0.942436 -3.54226,0.942436 -1.26741,0 -2.33984,-0.389974 -1.07243,-0.389973 -2.01486,-1.267414 -0.32498,-0.324978 -0.48747,-0.29248 -0.12999,0.0325 -0.12999,0.487467 v 5.947097 q 0,0.552463 -0.48747,0.552463 h -3.99723 q -0.51996,0 -0.51996,-0.584961 V 42.470141 q 0,-0.357476 0.16248,-0.519965 0.16249,-0.194986 0.58497,-0.194986 h 3.57475 z m 0.68246,12.771635 q 0.64995,0.714951 1.3974,1.16992 0.74745,0.454969 1.72239,0.454969 1.13742,0 1.94986,-0.58496 0.84495,-0.617458 1.29992,-1.91737 0.45496,-1.33241 0.45496,-3.509762 0,-2.112357 -0.45496,-3.314776 -0.45497,-1.202418 -1.29992,-1.722383 -0.81244,-0.519965 -1.85237,-0.519965 -0.90994,0 -1.65739,0.389974 -0.71495,0.357475 -1.13742,0.974934 -0.42247,0.58496 -0.42247,1.234916 v 7.344503 z"
           id="path1770"
           style="font-size:32.4978px;line-height:1.25;stroke-width:0.812"
           transform="translate(-6.3333332e-6)" />
        <path
           d="m 829.4743,51.829507 q 0,1.202419 0.55247,2.144855 0.58496,0.909938 1.52739,1.429903 0.97494,0.487467 2.17735,0.487467 1.16992,0 2.14486,-0.487467 1.00743,-0.519965 2.01486,-1.689885 0.12999,-0.129992 0.22749,-0.129992 0.0975,-0.0325 0.35747,0.09749 l 2.33984,0.974934 q 0.45497,0.194987 0.0975,0.649956 -1.03993,1.494898 -2.17735,2.372339 -1.13743,0.877441 -2.53483,1.267414 -1.36491,0.357476 -3.08729,0.357476 -2.53483,0 -4.5172,-1.104925 -1.98236,-1.104925 -3.15228,-3.054793 -1.13743,-1.982366 -1.13743,-4.517194 0,-2.794811 1.16992,-4.842172 1.20242,-2.07986 3.18479,-3.217282 1.98236,-1.137423 4.3547,-1.137423 2.50233,0 4.38721,1.104925 1.88487,1.072427 2.9573,3.087291 1.10492,2.014863 1.10492,4.907167 0,0.357476 -0.065,0.552463 -0.065,0.194987 -0.48746,0.227484 h -11.04925 q -0.19499,0 -0.29248,0.129992 -0.0975,0.129991 -0.0975,0.389973 z m 6.53206,-3.24978 q 0.35748,0 0.45497,-0.06499 0.0975,-0.09749 0.0975,-0.389974 0,-0.812445 -0.38997,-1.657388 -0.35748,-0.844942 -1.10493,-1.397405 -0.71495,-0.58496 -1.85237,-0.58496 -1.07243,0 -1.91737,0.519964 -0.84494,0.519965 -1.29991,1.462401 -0.45497,0.909939 -0.45497,2.07986 z"
           id="path1772"
           style="font-size:32.4978px;line-height:1.25;stroke-width:0.812"
           transform="translate(-6.3333332e-6)" />
        <path
           d="m 844.81328,58.979023 q -0.68246,0 -0.68246,-0.649956 V 42.372648 q 0,-0.617458 0.51997,-0.617458 h 3.93223 q 0.48747,0 0.48747,0.552462 v 1.592392 q 0,0.194987 0.0975,0.259983 0.0975,0.065 0.29248,-0.129992 0.84495,-0.779947 1.68989,-1.364907 0.84494,-0.58496 1.78738,-0.909938 0.94243,-0.324978 2.01486,-0.324978 2.37234,0 3.73725,1.397405 1.3974,1.397405 1.3974,3.737247 v 11.634212 q 0,0.779947 -0.77994,0.779947 h -3.60726 q -0.32498,0 -0.48747,-0.129991 -0.12999,-0.162489 -0.12999,-0.519965 V 47.344811 q 0,-1.104925 -0.61746,-1.689886 -0.58496,-0.617458 -1.75488,-0.617458 -0.68245,0 -1.26741,0.227485 -0.58496,0.227484 -1.13742,0.682454 -0.55247,0.422471 -1.16993,1.104925 v 11.179243 q 0,0.747449 -0.84494,0.747449 h -3.47726 z"
           id="path1774"
           style="font-size:32.4978px;line-height:1.25;stroke-width:0.812"
           transform="translate(-6.3333332e-6)" />
        <path
           d="m 877.83107,40.552771 q -0.71496,-0.779947 -1.78738,-1.397405 -1.03993,-0.617459 -2.9898,-0.617459 -2.04736,0 -3.05479,0.74745 -1.00743,0.714951 -1.00743,1.852374 0,0.389974 0.19498,0.844943 0.19499,0.454969 0.77995,0.877441 0.58496,0.422471 1.65739,0.747449 l 5.13465,1.462401 q 2.9898,0.812445 4.3547,2.632322 1.36491,1.787379 1.36491,4.159718 0,2.274846 -1.16992,3.964731 -1.16992,1.657388 -3.34727,2.567327 -2.17735,0.909938 -5.16715,0.909938 -2.20985,0 -4.15972,-0.487467 -1.91737,-0.519965 -3.41227,-1.462401 -1.4624,-0.974934 -2.30734,-2.242348 -0.16249,-0.324978 -0.12999,-0.519965 0.0325,-0.227484 0.32497,-0.454969 l 2.50233,-1.722383 q 0.38998,-0.227485 0.61746,-0.194987 0.25998,0.0325 0.45497,0.259982 0.77995,0.974934 1.5274,1.62489 0.77995,0.649956 1.78738,0.942436 1.00743,0.292481 2.40483,0.292481 2.11236,0 3.37978,-0.649956 1.26741,-0.682454 1.26741,-2.07986 0,-0.552462 -0.25998,-1.007431 -0.25999,-0.487467 -0.84495,-0.844943 -0.55246,-0.389974 -1.59239,-0.714952 l -4.90717,-1.397405 q -1.91737,-0.552463 -3.21728,-1.559894 -1.29991,-1.007432 -1.98236,-2.37234 -0.64996,-1.364907 -0.64996,-2.859806 0,-2.079859 1.13742,-3.737247 1.16992,-1.657388 3.24978,-2.599824 2.11236,-0.974934 4.90717,-0.974934 1.85238,0 3.44477,0.422472 1.62489,0.422471 2.9248,1.16992 1.29991,0.74745 2.11236,1.819877 0.12999,0.162489 0.19498,0.389974 0.065,0.194986 -0.19498,0.422471 l -2.72982,2.014864 q -0.19499,0.129991 -0.35747,0.09749 -0.16249,-0.065 -0.45497,-0.324978 z"
           id="path1776"
           style="font-size:32.4978px;line-height:1.25;stroke-width:0.812"
           transform="translate(-6.3333332e-6)" />
        <path
           d="m 892.61756,55.696745 q 1.00743,0 1.88487,-0.519964 0.90994,-0.552463 1.65739,-1.397406 V 42.502639 q 0,-0.747449 0.84495,-0.747449 h 3.50976 q 0.68245,0 0.68245,0.682453 l -0.065,15.95642 q 0,0.58496 -0.51997,0.58496 h -3.86724 q -0.48746,0 -0.48746,-0.552463 v -1.592392 q 0,-0.194987 -0.0975,-0.227484 -0.0975,-0.065 -0.25998,0.09749 -1.36491,1.397405 -2.72982,2.014864 -1.3324,0.58496 -2.8598,0.58496 -1.4299,0 -2.56733,-0.617458 -1.10492,-0.617458 -1.75488,-1.787379 -0.64995,-1.202419 -0.64995,-2.827309 V 42.535137 q 0,-0.779947 0.77994,-0.779947 h 3.60726 q 0.61746,0 0.61746,0.682453 v 10.919261 q 0,1.072427 0.58496,1.722383 0.61745,0.617458 1.68988,0.617458 z"
           id="path1778"
           style="font-size:32.4978px;line-height:1.25;stroke-width:0.812"
           transform="translate(-6.3333332e-6)" />
        <path
           d="m 915.36599,46.239886 q -0.55246,-0.714952 -1.49489,-1.234917 -0.94244,-0.519964 -2.30735,-0.519964 -1.20242,0 -2.04736,0.487467 -0.81244,0.454969 -0.81244,1.267414 0,0.422471 0.32497,0.812445 0.32498,0.357476 1.4949,0.649956 l 3.73725,0.909938 q 2.69732,0.617458 3.83474,2.014864 1.13742,1.397405 1.13742,3.119788 0,1.754881 -1.00743,2.989798 -0.97493,1.234916 -2.72981,1.91737 -1.75489,0.649956 -4.02973,0.649956 -2.89231,0 -4.90717,-1.007432 -2.01486,-1.039929 -2.82731,-2.567326 -0.12999,-0.227485 -0.12999,-0.422471 0,-0.227485 0.19499,-0.324978 l 2.20985,-1.137423 q 0.32498,-0.162489 0.48747,-0.129991 0.19498,0 0.32497,0.162489 0.42248,0.58496 1.00744,1.104925 0.58496,0.519964 1.4624,0.844942 0.87744,0.292481 2.20985,0.259983 0.90994,0 1.62489,-0.194987 0.74745,-0.227485 1.16992,-0.617458 0.42247,-0.422471 0.42247,-0.974934 0,-0.552463 -0.45497,-0.942436 -0.45497,-0.422472 -1.68989,-0.714952 l -3.34727,-0.714951 q -2.43733,-0.552463 -3.70475,-1.722384 -1.23491,-1.202418 -1.23491,-3.119788 0,-1.657388 0.84494,-2.924802 0.87744,-1.267414 2.53483,-1.982366 1.65738,-0.747449 3.96473,-0.747449 2.46983,0 4.25721,0.909938 1.81988,0.909938 2.59982,2.177352 0.12999,0.194987 0.19499,0.422472 0.065,0.194987 -0.22748,0.357476 l -2.33985,1.137423 q -0.22748,0.09749 -0.42247,0.06499 -0.16249,-0.06499 -0.32498,-0.259982 z"
           id="path1780"
           style="font-size:32.4978px;line-height:1.25;stroke-width:0.812"
           transform="translate(-6.3333332e-6)" />
        <path
           d="m 926.28528,41.75519 q 0.71495,0 0.71495,0.649956 v 0.974933 q 0,0.194987 0.12999,0.227485 0.12999,0 0.32498,-0.162489 0.51996,-0.487467 1.13742,-0.942436 0.64996,-0.454969 1.5274,-0.747449 0.87744,-0.324978 2.07986,-0.324978 1.91737,0 3.41226,0.974934 1.4949,0.942436 2.37234,2.892304 0.87744,1.91737 0.87744,4.939665 0,3.119789 -0.90993,5.134652 -0.90994,2.014864 -2.46984,2.989798 -1.55989,0.942436 -3.54226,0.942436 -1.26741,0 -2.33984,-0.389974 -1.07243,-0.389973 -2.01486,-1.267414 -0.32498,-0.324978 -0.48747,-0.29248 -0.12999,0.0325 -0.12999,0.487467 v 5.947097 q 0,0.552463 -0.48747,0.552463 h -3.99723 q -0.51996,0 -0.51996,-0.584961 V 42.470141 q 0,-0.357476 0.16249,-0.519965 0.16249,-0.194986 0.58496,-0.194986 h 3.57476 z m 0.68245,12.771635 q 0.64996,0.714951 1.39741,1.16992 0.74744,0.454969 1.72238,0.454969 1.13742,0 1.94987,-0.58496 0.84494,-0.617458 1.29991,-1.91737 0.45497,-1.33241 0.45497,-3.509762 0,-2.112357 -0.45497,-3.314776 -0.45497,-1.202418 -1.29991,-1.722383 -0.81245,-0.519965 -1.85238,-0.519965 -0.90994,0 -1.65739,0.389974 -0.71495,0.357475 -1.13742,0.974934 -0.42247,0.58496 -0.42247,1.234916 v 7.344503 z"
           id="path1782"
           style="font-size:32.4978px;line-height:1.25;stroke-width:0.812"
           transform="translate(-6.3333332e-6)" />
        <path
           d="m 946.14141,51.829507 q 0,1.202419 0.55246,2.144855 0.58496,0.909938 1.5274,1.429903 0.97493,0.487467 2.17735,0.487467 1.16992,0 2.14486,-0.487467 1.00743,-0.519965 2.01486,-1.689885 0.12999,-0.129992 0.22748,-0.129992 0.0975,-0.0325 0.35748,0.09749 l 2.33984,0.974934 q 0.45497,0.194987 0.0975,0.649956 -1.03993,1.494898 -2.17735,2.372339 -1.13742,0.877441 -2.53483,1.267414 -1.3649,0.357476 -3.08729,0.357476 -2.53483,0 -4.51719,-1.104925 -1.98237,-1.104925 -3.15229,-3.054793 -1.13742,-1.982366 -1.13742,-4.517194 0,-2.794811 1.16992,-4.842172 1.20242,-2.07986 3.18478,-3.217282 1.98237,-1.137423 4.35471,-1.137423 2.50233,0 4.3872,1.104925 1.88487,1.072427 2.9573,3.087291 1.10493,2.014863 1.10493,4.907167 0,0.357476 -0.065,0.552463 -0.065,0.194987 -0.48747,0.227484 h -11.04925 q -0.19498,0 -0.29248,0.129992 -0.0975,0.129991 -0.0975,0.389973 z m 6.53206,-3.24978 q 0.35747,0 0.45497,-0.06499 0.0975,-0.09749 0.0975,-0.389974 0,-0.812445 -0.38997,-1.657388 -0.35748,-0.844942 -1.10493,-1.397405 -0.71495,-0.58496 -1.85237,-0.58496 -1.07243,0 -1.91737,0.519964 -0.84495,0.519965 -1.29992,1.462401 -0.45497,0.909939 -0.45497,2.07986 z"
           id="path1784"
           style="font-size:32.4978px;line-height:1.25;stroke-width:0.812"
           transform="translate(-6.3333332e-6)" />
        <path
           d="m 968.66239,41.430212 q 2.11236,0 3.57476,0.747449 1.4949,0.714952 2.43733,1.852374 0.94244,1.137423 1.33241,2.339842 0.22749,0.649956 -0.38997,0.682454 l -3.41227,0.324978 q -0.35748,0.0325 -0.48747,-0.357476 -0.29248,-0.617458 -0.64995,-1.137423 -0.35748,-0.519965 -0.87744,-0.844943 -0.51997,-0.324978 -1.36491,-0.324978 -1.10493,0 -1.94987,0.617458 -0.84494,0.617459 -1.33241,1.884873 -0.45497,1.234916 -0.45497,3.152286 0,1.949868 0.48747,3.217282 0.48747,1.267415 1.36491,1.884873 0.90994,0.617458 2.14485,0.617458 1.4299,0 2.24235,-0.747449 0.84494,-0.74745 1.59239,-2.014864 0.0975,-0.162489 0.19499,-0.194987 0.0975,-0.0325 0.35747,0.0325 l 2.40484,0.552463 q 0.35748,0.09749 0.22749,0.617458 -0.25999,0.714951 -0.81245,1.592392 -0.55246,0.87744 -1.4624,1.62489 -0.87744,0.747449 -2.17735,1.267414 -1.26742,0.487467 -2.9898,0.487467 -2.50233,0 -4.4522,-1.104925 -1.94987,-1.137423 -3.08729,-3.119789 -1.10492,-2.014863 -1.10492,-4.647185 0,-2.66482 1.13742,-4.679683 1.13742,-2.047362 3.08729,-3.184784 1.94987,-1.137423 4.4197,-1.137423 z"
           id="path1786"
           style="font-size:32.4978px;line-height:1.25;stroke-width:0.812"
           transform="translate(-6.3333332e-6)" />
        <path
           d="m 985.39877,45.199956 q -0.35748,0 -0.35748,0.389974 v 7.831969 q 0,1.104926 0.51997,1.592393 0.51996,0.454969 1.65738,0.454969 h 1.75489 q 0.22748,0 0.35747,0.162489 0.12999,0.162489 0.12999,0.389973 l -0.0325,1.982366 q 0,0.617458 -0.71496,0.779947 -0.58496,0.065 -1.26741,0.129991 -0.64996,0.0325 -1.33241,0.065 -0.64996,0 -1.26741,0 -2.20985,0 -3.50977,-1.03993 -1.29991,-1.072427 -1.29991,-3.152286 v -9.099384 q 0,-0.487467 -0.42247,-0.487467 h -1.98237 q -0.61745,0 -0.61745,-0.552462 v -2.404837 q 0,-0.487467 0.58496,-0.487467 h 2.24234 q 0.29248,0 0.32498,-0.357476 l 0.45497,-4.939666 q 0.0325,-0.552462 0.48747,-0.552462 h 3.54226 q 0.51996,0 0.51996,0.617458 v 4.87467 q 0,0.324978 0.32498,0.324978 h 3.41227 q 0.58496,0 0.58496,0.519965 v 2.404837 q 0,0.552462 -0.64996,0.552462 z"
           id="path1788"
           style="font-size:32.4978px;line-height:1.25;stroke-width:0.812"
           transform="translate(-6.3333332e-6)" />
        <g
           aria-label="OpenSuspect"
           id="text1583"
           style="font-size:32.4978px;line-height:1.25;stroke-width:0.812">
          <path
             d="m 789.90608,57.187336 q -3.44476,0 -5.9471,-1.462401 -2.50233,-1.494899 -3.86723,-4.257212 -1.33241,-2.762312 -1.33241,-6.564555 0,-3.867238 1.3649,-6.662049 1.39741,-2.79481 3.89974,-4.289709 2.50233,-1.527397 5.8821,-1.527397 3.37977,0 5.84961,1.527397 2.50233,1.494899 3.86723,4.289709 1.36491,2.762313 1.36491,6.629551 0,3.802243 -1.36491,6.564556 -1.33241,2.762313 -3.83474,4.257211 -2.50233,1.494899 -5.8821,1.494899 z m 0,-3.997229 q 2.66482,0 3.89974,-1.91737 1.23491,-1.949868 1.23491,-6.337071 0,-4.484696 -1.26741,-6.49956 -1.23492,-2.047361 -3.86724,-2.047361 -2.66482,0 -3.93223,2.047361 -1.26742,2.047361 -1.26742,6.49956 0,4.354705 1.23492,6.304573 1.26741,1.949868 3.96473,1.949868 z"
             style="fill:#db2921"
             id="path1791" />
          <path
             d="m 808.55982,39.638525 q 0.71496,0 0.71496,0.649956 v 0.974934 q 0,0.194986 0.12999,0.227484 0.12999,0 0.32497,-0.162489 0.51997,-0.487467 1.13743,-0.942436 0.64995,-0.454969 1.52739,-0.747449 0.87744,-0.324978 2.07986,-0.324978 1.91737,0 3.41227,0.974934 1.4949,0.942436 2.37234,2.892304 0.87744,1.91737 0.87744,4.939665 0,3.119789 -0.90994,5.134652 -0.90994,2.014864 -2.46983,2.989798 -1.55989,0.942436 -3.54226,0.942436 -1.26741,0 -2.33984,-0.389974 -1.07243,-0.389973 -2.01486,-1.267414 -0.32498,-0.324978 -0.48747,-0.29248 -0.12999,0.0325 -0.12999,0.487467 v 5.947097 q 0,0.552463 -0.48747,0.552463 h -3.99723 q -0.51996,0 -0.51996,-0.58496 V 40.353476 q 0,-0.357476 0.16249,-0.519965 0.16248,-0.194986 0.58496,-0.194986 h 3.57475 z m 0.68246,12.771635 q 0.64995,0.714951 1.3974,1.16992 0.74745,0.45497 1.72239,0.45497 1.13742,0 1.94986,-0.584961 0.84495,-0.617458 1.29992,-1.91737 0.45497,-1.33241 0.45497,-3.509762 0,-2.112357 -0.45497,-3.314776 -0.45497,-1.202418 -1.29992,-1.722383 -0.81244,-0.519965 -1.85237,-0.519965 -0.90994,0 -1.65739,0.389974 -0.71495,0.357476 -1.13742,0.974934 -0.42247,0.58496 -0.42247,1.234916 v 7.344503 z"
             style="fill:#db2921"
             id="path1793" />
          <path
             d="m 828.41595,49.712842 q 0,1.202419 0.55247,2.144855 0.58496,0.909938 1.52739,1.429903 0.97494,0.487467 2.17735,0.487467 1.16993,0 2.14486,-0.487467 1.00743,-0.519965 2.01486,-1.689885 0.12999,-0.129992 0.22749,-0.129992 0.0975,-0.0325 0.35747,0.09749 l 2.33984,0.974934 q 0.45497,0.194987 0.0975,0.649956 -1.03993,1.494899 -2.17735,2.372339 -1.13743,0.877441 -2.53483,1.267414 -1.36491,0.357476 -3.08729,0.357476 -2.53483,0 -4.5172,-1.104925 -1.98236,-1.104925 -3.15228,-3.054793 -1.13743,-1.982366 -1.13743,-4.517194 0,-2.794811 1.16992,-4.842172 1.20242,-2.079859 3.18479,-3.217282 1.98236,-1.137423 4.3547,-1.137423 2.50233,0 4.38721,1.104925 1.88487,1.072427 2.9573,3.087291 1.10492,2.014863 1.10492,4.907167 0,0.357476 -0.065,0.552463 -0.065,0.194987 -0.48747,0.227485 h -11.04925 q -0.19499,0 -0.29248,0.129991 -0.0975,0.129991 -0.0975,0.389973 z m 6.53206,-3.24978 q 0.35748,0 0.45497,-0.065 0.0975,-0.09749 0.0975,-0.389974 0,-0.812445 -0.38997,-1.657387 -0.35748,-0.844943 -1.10493,-1.397406 -0.71495,-0.58496 -1.85237,-0.58496 -1.07243,0 -1.91737,0.519965 -0.84494,0.519964 -1.29991,1.462401 -0.45497,0.909938 -0.45497,2.079859 z"
             style="fill:#db2921"
             id="path1795" />
          <path
             d="m 843.75493,56.862358 q -0.68246,0 -0.68246,-0.649956 V 40.255983 q 0,-0.617458 0.51997,-0.617458 h 3.93223 q 0.48747,0 0.48747,0.552462 v 1.592392 q 0,0.194987 0.0975,0.259983 0.0975,0.06499 0.29248,-0.129991 0.84495,-0.779948 1.68989,-1.364908 0.84494,-0.58496 1.78738,-0.909938 0.94243,-0.324978 2.01486,-0.324978 2.37234,0 3.73725,1.397405 1.3974,1.397405 1.3974,3.737247 v 11.634212 q 0,0.779947 -0.77994,0.779947 h -3.60726 q -0.32498,0 -0.48747,-0.129991 -0.12999,-0.162489 -0.12999,-0.519965 V 45.228146 q 0,-1.104925 -0.61746,-1.689885 -0.58496,-0.617459 -1.75488,-0.617459 -0.68245,0 -1.26741,0.227485 -0.58496,0.227485 -1.13742,0.682454 -0.55247,0.422471 -1.16992,1.104925 v 11.179243 q 0,0.747449 -0.84495,0.747449 h -3.47726 z"
             style="fill:#db2921"
             id="path1797" />
          <path
             d="m 876.77272,38.436106 q -0.71495,-0.779947 -1.78738,-1.397405 -1.03993,-0.617458 -2.9898,-0.617458 -2.04736,0 -3.05479,0.747449 -1.00743,0.714952 -1.00743,1.852374 0,0.389974 0.19498,0.844943 0.19499,0.454969 0.77995,0.877441 0.58496,0.422471 1.65739,0.747449 l 5.13465,1.462401 q 2.9898,0.812445 4.3547,2.632322 1.36491,1.787379 1.36491,4.159718 0,2.274846 -1.16992,3.964732 -1.16992,1.657387 -3.34727,2.567326 -2.17735,0.909938 -5.16715,0.909938 -2.20985,0 -4.15972,-0.487467 -1.91737,-0.519965 -3.41227,-1.462401 -1.4624,-0.974934 -2.30734,-2.242348 -0.16249,-0.324978 -0.12999,-0.519965 0.0325,-0.227484 0.32497,-0.454969 l 2.50233,-1.722383 q 0.38998,-0.227485 0.61746,-0.194987 0.25999,0.0325 0.45497,0.259982 0.77995,0.974934 1.5274,1.62489 0.77995,0.649956 1.78738,0.942436 1.00743,0.292481 2.40483,0.292481 2.11236,0 3.37978,-0.649956 1.26741,-0.682454 1.26741,-2.079859 0,-0.552463 -0.25998,-1.007432 -0.25999,-0.487467 -0.84495,-0.844943 -0.55246,-0.389974 -1.59239,-0.714952 l -4.90717,-1.397405 q -1.91737,-0.552463 -3.21728,-1.559894 -1.29991,-1.007432 -1.98236,-2.37234 -0.64996,-1.364907 -0.64996,-2.859806 0,-2.079859 1.13742,-3.737247 1.16992,-1.657388 3.24978,-2.599824 2.11236,-0.974934 4.90717,-0.974934 1.85238,0 3.44477,0.422472 1.62489,0.422471 2.9248,1.16992 1.29991,0.74745 2.11236,1.819877 0.12999,0.162489 0.19498,0.389974 0.065,0.194987 -0.19498,0.422471 l -2.72982,2.014864 q -0.19498,0.129991 -0.35747,0.09749 -0.16249,-0.065 -0.45497,-0.324978 z"
             style="fill:#e6e2dd"
             id="path1799" />
          <path
             d="m 891.55921,53.58008 q 1.00743,0 1.88487,-0.519964 0.90994,-0.552463 1.65739,-1.397406 V 40.385974 q 0,-0.747449 0.84495,-0.747449 h 3.50976 q 0.68245,0 0.68245,0.682453 l -0.065,15.95642 q 0,0.58496 -0.51997,0.58496 h -3.86724 q -0.48746,0 -0.48746,-0.552462 v -1.592393 q 0,-0.194986 -0.0975,-0.227484 -0.0975,-0.065 -0.25998,0.09749 -1.36491,1.397406 -2.72981,2.014864 -1.33241,0.58496 -2.85981,0.58496 -1.4299,0 -2.56733,-0.617458 -1.10492,-0.617458 -1.75488,-1.787379 -0.64995,-1.202419 -0.64995,-2.827309 V 40.418472 q 0,-0.779947 0.77994,-0.779947 h 3.60726 q 0.61746,0 0.61746,0.682453 v 10.919261 q 0,1.072427 0.58496,1.722383 0.61746,0.617458 1.68988,0.617458 z"
             style="fill:#e6e2dd"
             id="path1801" />
          <path
             d="m 914.30765,44.123221 q -0.55247,-0.714952 -1.4949,-1.234916 -0.94244,-0.519965 -2.30735,-0.519965 -1.20242,0 -2.04736,0.487467 -0.81244,0.454969 -0.81244,1.267414 0,0.422471 0.32497,0.812445 0.32498,0.357476 1.4949,0.649956 l 3.73725,0.909938 q 2.69732,0.617458 3.83474,2.014864 1.13742,1.397405 1.13742,3.119788 0,1.754882 -1.00743,2.989798 -0.97493,1.234916 -2.72981,1.91737 -1.75488,0.649956 -4.02973,0.649956 -2.8923,0 -4.90717,-1.007432 -2.01486,-1.039929 -2.82731,-2.567326 -0.12999,-0.227484 -0.12999,-0.422471 0,-0.227485 0.19499,-0.324978 l 2.20985,-1.137423 q 0.32498,-0.162489 0.48747,-0.129991 0.19498,0 0.32497,0.162489 0.42248,0.58496 1.00744,1.104925 0.58496,0.519965 1.4624,0.844943 0.87744,0.29248 2.20985,0.259982 0.90994,0 1.62489,-0.194987 0.74745,-0.227484 1.16992,-0.617458 0.42247,-0.422471 0.42247,-0.974934 0,-0.552463 -0.45497,-0.942436 -0.45497,-0.422472 -1.68989,-0.714952 l -3.34727,-0.714951 q -2.43733,-0.552463 -3.70475,-1.722384 -1.23491,-1.202418 -1.23491,-3.119788 0,-1.657388 0.84494,-2.924802 0.87744,-1.267414 2.53483,-1.982366 1.65738,-0.747449 3.96473,-0.747449 2.46983,0 4.25721,0.909938 1.81988,0.909938 2.59982,2.177353 0.13,0.194986 0.19499,0.422471 0.065,0.194987 -0.22748,0.357476 l -2.33985,1.137423 q -0.22748,0.09749 -0.42247,0.065 -0.16249,-0.065 -0.32497,-0.259982 z"
             style="fill:#e6e2dd"
             id="path1803" />
          <path
             d="m 925.22693,39.638525 q 0.71495,0 0.71495,0.649956 v 0.974934 q 0,0.194986 0.12999,0.227484 0.12999,0 0.32498,-0.162489 0.51996,-0.487467 1.13742,-0.942436 0.64996,-0.454969 1.5274,-0.747449 0.87744,-0.324978 2.07986,-0.324978 1.91737,0 3.41226,0.974934 1.4949,0.942436 2.37234,2.892304 0.87744,1.91737 0.87744,4.939665 0,3.119789 -0.90993,5.134652 -0.90994,2.014864 -2.46984,2.989798 -1.55989,0.942436 -3.54226,0.942436 -1.26741,0 -2.33984,-0.389974 -1.07243,-0.389973 -2.01486,-1.267414 -0.32498,-0.324978 -0.48747,-0.29248 -0.12999,0.0325 -0.12999,0.487467 v 5.947097 q 0,0.552463 -0.48747,0.552463 h -3.99723 q -0.51996,0 -0.51996,-0.58496 V 40.353476 q 0,-0.357476 0.16249,-0.519965 0.16249,-0.194986 0.58496,-0.194986 h 3.57476 z m 0.68245,12.771635 q 0.64996,0.714951 1.39741,1.16992 0.74744,0.45497 1.72238,0.45497 1.13742,0 1.94987,-0.584961 0.84494,-0.617458 1.29991,-1.91737 0.45497,-1.33241 0.45497,-3.509762 0,-2.112357 -0.45497,-3.314776 -0.45497,-1.202418 -1.29991,-1.722383 -0.81245,-0.519965 -1.85238,-0.519965 -0.90994,0 -1.65739,0.389974 -0.71495,0.357476 -1.13742,0.974934 -0.42247,0.58496 -0.42247,1.234916 v 7.344503 z"
             style="fill:#e6e2dd"
             id="path1805" />
          <path
             d="m 945.08306,49.712842 q 0,1.202419 0.55246,2.144855 0.58496,0.909938 1.5274,1.429903 0.97493,0.487467 2.17735,0.487467 1.16992,0 2.14486,-0.487467 1.00743,-0.519965 2.01486,-1.689885 0.12999,-0.129992 0.22748,-0.129992 0.0975,-0.0325 0.35748,0.09749 l 2.33984,0.974934 q 0.45497,0.194987 0.0975,0.649956 -1.03992,1.494899 -2.17735,2.372339 -1.13742,0.877441 -2.53483,1.267414 -1.3649,0.357476 -3.08729,0.357476 -2.53483,0 -4.51719,-1.104925 -1.98237,-1.104925 -3.15229,-3.054793 -1.13742,-1.982366 -1.13742,-4.517194 0,-2.794811 1.16992,-4.842172 1.20242,-2.079859 3.18478,-3.217282 1.98237,-1.137423 4.35471,-1.137423 2.50233,0 4.3872,1.104925 1.88487,1.072427 2.9573,3.087291 1.10493,2.014863 1.10493,4.907167 0,0.357476 -0.065,0.552463 -0.065,0.194987 -0.48747,0.227485 h -11.04925 q -0.19498,0 -0.29248,0.129991 -0.0975,0.129991 -0.0975,0.389973 z m 6.53206,-3.24978 q 0.35747,0 0.45497,-0.065 0.0975,-0.09749 0.0975,-0.389974 0,-0.812445 -0.38997,-1.657387 -0.35748,-0.844943 -1.10493,-1.397406 -0.71495,-0.58496 -1.85237,-0.58496 -1.07243,0 -1.91737,0.519965 -0.84495,0.519964 -1.29992,1.462401 -0.45496,0.909938 -0.45496,2.079859 z"
             style="fill:#e6e2dd"
             id="path1807" />
          <path
             d="m 967.60404,39.313547 q 2.11236,0 3.57476,0.747449 1.4949,0.714952 2.43733,1.852375 0.94244,1.137423 1.33241,2.339841 0.22749,0.649956 -0.38997,0.682454 l -3.41227,0.324978 q -0.35748,0.0325 -0.48747,-0.357476 -0.29248,-0.617458 -0.64995,-1.137423 -0.35748,-0.519965 -0.87744,-0.844943 -0.51997,-0.324978 -1.36491,-0.324978 -1.10493,0 -1.94987,0.617459 -0.84494,0.617458 -1.33241,1.884872 -0.45497,1.234916 -0.45497,3.152286 0,1.949868 0.48747,3.217282 0.48747,1.267415 1.36491,1.884873 0.90994,0.617458 2.14485,0.617458 1.42991,0 2.24235,-0.747449 0.84494,-0.74745 1.59239,-2.014864 0.0975,-0.162489 0.19499,-0.194987 0.0975,-0.0325 0.35747,0.0325 l 2.40484,0.552463 q 0.35748,0.09749 0.22749,0.617458 -0.25999,0.714951 -0.81245,1.592392 -0.55246,0.877441 -1.4624,1.62489 -0.87744,0.747449 -2.17735,1.267414 -1.26742,0.487467 -2.9898,0.487467 -2.50233,0 -4.4522,-1.104925 -1.94987,-1.137423 -3.08729,-3.119789 -1.10492,-2.014863 -1.10492,-4.647185 0,-2.66482 1.13742,-4.679683 1.13742,-2.047361 3.08729,-3.184784 1.94987,-1.137423 4.4197,-1.137423 z"
             style="fill:#e6e2dd"
             id="path1809" />
          <path
             d="m 984.34042,43.083291 q -0.35748,0 -0.35748,0.389974 v 7.831969 q 0,1.104926 0.51997,1.592393 0.51996,0.454969 1.65739,0.454969 h 1.75488 q 0.22748,0 0.35747,0.162489 0.12999,0.162489 0.12999,0.389973 l -0.0325,1.982366 q 0,0.617458 -0.71496,0.779947 -0.58496,0.065 -1.26741,0.129991 -0.64996,0.0325 -1.33241,0.065 -0.64996,0 -1.26741,0 -2.20985,0 -3.50977,-1.039929 -1.29991,-1.072428 -1.29991,-3.152287 v -9.099384 q 0,-0.487467 -0.42247,-0.487467 h -1.98237 q -0.61745,0 -0.61745,-0.552462 v -2.404837 q 0,-0.487467 0.58496,-0.487467 h 2.24234 q 0.29248,0 0.32498,-0.357476 l 0.45497,-4.939666 q 0.0325,-0.552462 0.48747,-0.552462 h 3.54226 q 0.51996,0 0.51996,0.617458 v 4.87467 q 0,0.324978 0.32498,0.324978 h 3.41227 q 0.58496,0 0.58496,0.519965 v 2.404837 q 0,0.552462 -0.64995,0.552462 z"
             style="fill:#e6e2dd"
             id="path1811" />
        </g>
      </g>
    </g>
  </g>
</svg>
