<?xml version="1.0" encoding="UTF-8" standalone="no"?>
<!-- Created with Inkscape (http://www.inkscape.org/) -->

<svg
   width="196.82256mm"
   height="32.802578mm"
   viewBox="0 0 196.82256 32.802578"
   version="1.1"
   id="svg3069"
   inkscape:version="1.1.1 (3bf5ae0d25, 2021-09-20, custom)"
   sodipodi:docname="logo.svg"
   xmlns:inkscape="http://www.inkscape.org/namespaces/inkscape"
   xmlns:sodipodi="http://sodipodi.sourceforge.net/DTD/sodipodi-0.dtd"
   xmlns="http://www.w3.org/2000/svg"
   xmlns:svg="http://www.w3.org/2000/svg">
  <sodipodi:namedview
     id="namedview3071"
     pagecolor="#505050"
     bordercolor="#eeeeee"
     borderopacity="1"
     inkscape:pageshadow="0"
     inkscape:pageopacity="0"
     inkscape:pagecheckerboard="0"
     inkscape:document-units="mm"
     showgrid="false"
     inkscape:zoom="0.27705528"
     inkscape:cx="398.83738"
     inkscape:cy="315.82145"
     inkscape:window-width="1920"
     inkscape:window-height="1171"
     inkscape:window-x="0"
     inkscape:window-y="360"
     inkscape:window-maximized="1"
     inkscape:current-layer="text2804" />
  <defs
     id="defs3066" />
  <g
     inkscape:label="Layer 1"
     inkscape:groupmode="layer"
     id="layer1"
     transform="translate(-142.24462,-145.46849)">
    <g
       id="g2806"
       transform="matrix(1.2820752,0,0,1.2820752,-853.983,102.18761)">
      <g
         aria-label="OpenSuspect"
         id="text2796"
         style="font-size:32.4978px;line-height:1.25;stroke-width:0.812">
        <path
           d="m 790.68477,39.651719 q 0.0635,0.222153 0.11108,0.634722 0.0635,0.396702 0.0635,0.650591 v 13.249835 q 0,1.428126 -0.66646,2.602363 -0.66646,1.158369 -1.92003,1.856564 -1.23771,0.698194 -3.01494,0.698194 h -1.57093 q -1.76136,0 -3.01494,-0.698194 -1.25357,-0.698195 -1.92003,-1.856564 -0.65059,-1.174237 -0.65059,-2.602363 V 41.03224 q 0,-1.428125 0.65059,-2.586494 0.66646,-1.174237 1.92003,-1.872432 1.25358,-0.698195 3.01494,-0.698195 h 1.57093 q 2.20567,0 3.60206,1.06316 1.39639,1.047293 1.82482,2.71344 z m -4.49066,3.887676 q 0,-1.491598 -0.0793,-2.316738 -0.0793,-0.825139 -0.44431,-1.1425 -0.34909,-0.33323 -1.1901,-0.33323 -0.84101,0 -1.20597,0.33323 -0.36497,0.317361 -0.44431,1.1425 -0.0793,0.82514 -0.0793,2.316738 v 8.140318 q 0,1.491598 0.0793,2.316737 0.0793,0.82514 0.42844,1.158369 0.36496,0.317361 1.22184,0.317361 0.85687,0 1.20597,-0.317361 0.36497,-0.333229 0.42844,-1.158369 0.0793,-0.825139 0.0793,-2.316737 z"
           style="font-weight:bold;font-family:'Evil Empire';-inkscape-font-specification:'Evil Empire Bold'"
           id="path3820" />
        <path
           d="m 799.85651,36.240085 q 1.77723,0 3.01494,0.698194 1.25357,0.698195 1.92003,1.872432 0.66646,1.174237 0.66646,2.602363 v 6.743928 q -1.63441,1.523334 -3.76073,3.141877 -2.12632,1.602675 -3.93528,2.856252 v 4.823892 h -4.66521 V 36.240085 Z m 1.30119,10.107958 V 43.90436 q 0,-1.396389 -0.0635,-2.173925 -0.0635,-0.777535 -0.38083,-1.126632 -0.30149,-0.364966 -0.99969,-0.460174 -0.58712,-0.06347 -1.55507,-0.06347 h -0.3967 v 8.965457 q 1.71375,-1.063161 3.39577,-2.697571 z"
           style="font-weight:bold;font-family:'Evil Empire';-inkscape-font-specification:'Evil Empire Bold'"
           id="path3822" />
        <path
           d="m 819.19969,40.175365 -7.12476,-0.428438 v 8.53702 h 7.12476 v 3.93528 l -7.12476,-0.428438 v 3.665523 l 7.12476,-0.428437 v 3.93528 h -7.12476 l -4.64935,0.01587 v -6.759796 l -1.72962,-3.93528 h 1.72962 V 36.240085 h 11.77411 z"
           style="font-weight:bold;font-family:'Evil Empire';-inkscape-font-specification:'Evil Empire Bold'"
           id="path3824" />
        <path
           d="m 829.16483,36.240085 h 4.64934 v 22.738938 h -4.64934 V 47.506411 l -3.36403,-4.458926 v 15.931538 h -4.58587 V 36.208348 l 4.49066,0.01587 0.11108,0.126944 3.34816,4.42719 z"
           style="font-weight:bold;font-family:'Evil Empire';-inkscape-font-specification:'Evil Empire Bold'"
           id="path3826" />
        <path
           d="m 847.46071,45.094465 -3.71313,-0.269757 v -4.744551 h -0.0952 q -0.38083,-0.01587 -0.69819,-0.01587 -1.4916,0 -2.09459,0.25389 -0.60298,0.253889 -0.65059,1.55507 -0.0159,0.206285 -0.0317,0.507778 0,0.301493 -0.0159,0.618855 0,0.301493 0,0.507778 v 0.222153 l 8.04511,5.760108 v 4.300245 q 0,1.428126 -0.66646,2.602363 -0.66646,1.174237 -1.92004,1.872432 -1.23771,0.698195 -2.99906,0.698195 h -6.7598 v -8.108582 l 3.71313,0.269757 0.46017,3.998753 q 0.58712,0 1.06317,0.01587 0.33322,0.01587 0.61885,0.01587 0.76167,0 1.28531,-0.09521 0.52365,-0.111077 0.71407,-0.682327 0.19041,-0.587119 0.19041,-1.920036 v -0.285625 l -8.04511,-5.871185 v -4.887364 q 0,-1.428126 0.65059,-2.602363 0.66646,-1.174237 1.92004,-1.872432 1.25358,-0.698194 3.01493,-0.698194 h 6.56938 z"
           style="font-weight:bold;font-family:'Evil Empire';-inkscape-font-specification:'Evil Empire Bold'"
           id="path3828" />
        <path
           d="m 858.50489,36.240085 h 4.64934 v 22.738938 h -7.66428 q -1.76135,0 -3.01493,-0.698195 -1.25358,-0.698195 -1.92004,-1.872432 -0.65059,-1.174237 -0.65059,-2.602362 V 36.240085 h 4.64935 v 16.423448 q 0,1.761355 0.66646,2.158057 0.60298,0.349097 2.34847,0.349097 0.33323,0 0.71406,-0.01587 h 0.22216 z"
           style="font-weight:bold;font-family:'Evil Empire';-inkscape-font-specification:'Evil Empire Bold'"
           id="path3830" />
        <path
           d="m 876.75316,45.094465 -3.71313,-0.269757 v -4.744551 h -0.0952 q -0.38083,-0.01587 -0.69819,-0.01587 -1.4916,0 -2.09459,0.25389 -0.60298,0.253889 -0.65059,1.55507 -0.0159,0.206285 -0.0317,0.507778 0,0.301493 -0.0159,0.618855 0,0.301493 0,0.507778 v 0.222153 l 8.04511,5.760108 v 4.300245 q 0,1.428126 -0.66646,2.602363 -0.66646,1.174237 -1.92004,1.872432 -1.23771,0.698195 -2.99906,0.698195 h -6.7598 v -8.108582 l 3.71313,0.269757 0.46017,3.998753 q 0.58712,0 1.06317,0.01587 0.33322,0.01587 0.61885,0.01587 0.76167,0 1.28531,-0.09521 0.52365,-0.111077 0.71407,-0.682327 0.19041,-0.587119 0.19041,-1.920036 v -0.285625 l -8.04511,-5.871185 v -4.887364 q 0,-1.428126 0.65059,-2.602363 0.66646,-1.174237 1.92004,-1.872432 1.25358,-0.698194 3.01493,-0.698194 h 6.56938 z"
           style="font-weight:bold;font-family:'Evil Empire';-inkscape-font-specification:'Evil Empire Bold'"
           id="path3832" />
        <path
           d="m 885.97251,36.240085 q 1.77722,0 3.01493,0.698194 1.25358,0.698195 1.92004,1.872432 0.66646,1.174237 0.66646,2.602363 v 6.743928 q -1.63442,1.523334 -3.76074,3.141877 -2.12632,1.602675 -3.93528,2.856252 v 4.823892 h -4.66521 V 36.240085 Z m 1.30118,10.107958 V 43.90436 q 0,-1.396389 -0.0635,-2.173925 -0.0635,-0.777535 -0.38084,-1.126632 -0.30149,-0.364966 -0.99968,-0.460174 -0.58712,-0.06347 -1.55508,-0.06347 h -0.3967 v 8.965457 q 1.71375,-1.063161 3.39577,-2.697571 z"
           style="font-weight:bold;font-family:'Evil Empire';-inkscape-font-specification:'Evil Empire Bold'"
           id="path3834" />
        <path
           d="m 905.31568,40.175365 -7.12476,-0.428438 v 8.53702 h 7.12476 v 3.93528 l -7.12476,-0.428438 v 3.665523 l 7.12476,-0.428437 v 3.93528 h -7.12476 l -4.64934,0.01587 v -6.759796 l -1.72962,-3.93528 h 1.72962 V 36.240085 h 11.7741 z"
           style="font-weight:bold;font-family:'Evil Empire';-inkscape-font-specification:'Evil Empire Bold'"
           id="path3836" />
        <path
           d="m 911.88507,39.746927 h -0.0159 v 12.916606 q 0,1.761355 0.65059,2.158057 0.55538,0.333229 2.20566,0.333229 0.38083,0 0.82514,-0.01587 h 2.33261 v 3.840072 h -5.07779 q -1.76135,0 -3.01493,-0.698195 -1.25358,-0.698195 -1.92003,-1.872432 -0.65059,-1.174237 -0.65059,-2.602362 V 36.240085 h 10.66334 v 3.93528 z"
           style="font-weight:bold;font-family:'Evil Empire';-inkscape-font-specification:'Evil Empire Bold'"
           id="path3838" />
        <path
           d="m 930.56178,36.240085 v 3.93528 l -3.71313,-0.380834 v 19.184492 h -4.66521 V 39.715191 l -3.95115,0.460174 v -3.93528 z"
           style="font-weight:bold;font-family:'Evil Empire';-inkscape-font-specification:'Evil Empire Bold'"
           id="path3840" />
      </g>
      <g
         aria-label="OpenSuspect"
         id="text2804"
         style="font-size:32.4978px;line-height:1.25;stroke-width:0.812">
        <path
           d="m 789.62642,37.535054 q 0.0635,0.222153 0.11108,0.634722 0.0635,0.396702 0.0635,0.650591 v 13.249835 q 0,1.428126 -0.66646,2.602363 -0.66646,1.158369 -1.92003,1.856564 -1.23771,0.698195 -3.01494,0.698195 h -1.57093 q -1.76136,0 -3.01494,-0.698195 -1.25357,-0.698195 -1.92003,-1.856564 -0.65059,-1.174237 -0.65059,-2.602363 V 38.915576 q 0,-1.428126 0.65059,-2.586495 0.66646,-1.174237 1.92003,-1.872432 1.25358,-0.698195 3.01494,-0.698195 h 1.57093 q 2.20567,0 3.60206,1.063161 1.39639,1.047292 1.82482,2.713439 z m -4.49066,3.887676 q 0,-1.491598 -0.0793,-2.316738 -0.0793,-0.825139 -0.44431,-1.1425 -0.34909,-0.33323 -1.1901,-0.33323 -0.84101,0 -1.20597,0.33323 -0.36497,0.317361 -0.44431,1.1425 -0.0793,0.82514 -0.0793,2.316738 v 8.140318 q 0,1.491598 0.0793,2.316737 0.0793,0.82514 0.42844,1.158369 0.36496,0.317362 1.22184,0.317362 0.85688,0 1.20597,-0.317362 0.36497,-0.333229 0.42844,-1.158369 0.0793,-0.825139 0.0793,-2.316737 z"
           style="fill:#db2921"
           id="path3843" />
        <path
           d="m 798.79816,34.12342 q 1.77723,0 3.01494,0.698195 1.25357,0.698194 1.92003,1.872431 0.66646,1.174237 0.66646,2.602363 v 6.743928 q -1.63441,1.523334 -3.76073,3.141877 -2.12632,1.602675 -3.93528,2.856252 v 4.823892 h -4.66521 V 34.12342 Z m 1.30119,10.107958 v -2.443682 q 0,-1.39639 -0.0635,-2.173926 -0.0635,-0.777535 -0.38083,-1.126632 -0.30149,-0.364966 -0.99969,-0.460174 -0.58712,-0.06347 -1.55507,-0.06347 h -0.3967 v 8.965457 q 1.71375,-1.063161 3.39577,-2.697571 z"
           style="fill:#db2921"
           id="path3845" />
        <path
           d="m 818.14134,38.0587 -7.12476,-0.428438 v 8.53702 h 7.12476 v 3.93528 l -7.12476,-0.428438 v 3.665523 l 7.12476,-0.428437 v 3.93528 h -7.12476 l -4.64935,0.01587 v -6.759796 l -1.72962,-3.93528 h 1.72962 V 34.12342 h 11.77411 z"
           style="fill:#db2921"
           id="path3847" />
        <path
           d="m 828.10648,34.12342 h 4.64935 v 22.738938 h -4.64935 V 45.389746 l -3.36403,-4.458926 v 15.931538 h -4.58587 V 34.091684 l 4.49066,0.01587 0.11108,0.126944 3.34816,4.427191 z"
           style="fill:#db2921"
           id="path3849" />
        <path
           d="m 846.40236,42.9778 -3.71313,-0.269757 v -4.744551 h -0.0952 q -0.38083,-0.01587 -0.69819,-0.01587 -1.4916,0 -2.09459,0.253889 -0.60298,0.253889 -0.65059,1.55507 -0.0159,0.206285 -0.0317,0.507778 0,0.301493 -0.0159,0.618855 0,0.301493 0,0.507778 v 0.222153 l 8.04511,5.760108 v 4.300246 q 0,1.428125 -0.66646,2.602362 -0.66646,1.174237 -1.92004,1.872432 -1.2377,0.698195 -2.99906,0.698195 h -6.7598 v -8.108582 l 3.71313,0.269757 0.46018,3.998753 q 0.58711,0 1.06316,0.01587 0.33323,0.01587 0.61885,0.01587 0.76167,0 1.28531,-0.09521 0.52365,-0.111077 0.71407,-0.682327 0.19041,-0.587118 0.19041,-1.920036 v -0.285625 l -8.04511,-5.871185 v -4.887364 q 0,-1.428126 0.65059,-2.602363 0.66646,-1.174237 1.92004,-1.872431 1.25358,-0.698195 3.01493,-0.698195 h 6.56938 z"
           style="fill:#e6e2dd"
           id="path3851" />
        <path
           d="m 857.44654,34.12342 h 4.64934 v 22.738938 h -7.66428 q -1.76135,0 -3.01493,-0.698195 -1.25358,-0.698195 -1.92004,-1.872432 -0.65059,-1.174236 -0.65059,-2.602362 V 34.12342 h 4.64935 v 16.423448 q 0,1.761355 0.66646,2.158057 0.60298,0.349097 2.34847,0.349097 0.33323,0 0.71406,-0.01587 h 0.22216 z"
           style="fill:#e6e2dd"
           id="path3853" />
        <path
           d="m 875.69481,42.9778 -3.71313,-0.269757 v -4.744551 h -0.0952 q -0.38083,-0.01587 -0.69819,-0.01587 -1.4916,0 -2.09459,0.253889 -0.60298,0.253889 -0.65059,1.55507 -0.0159,0.206285 -0.0317,0.507778 0,0.301493 -0.0159,0.618855 0,0.301493 0,0.507778 v 0.222153 l 8.04511,5.760108 v 4.300246 q 0,1.428125 -0.66646,2.602362 -0.66646,1.174237 -1.92004,1.872432 -1.2377,0.698195 -2.99906,0.698195 h -6.7598 v -8.108582 l 3.71313,0.269757 0.46018,3.998753 q 0.58711,0 1.06316,0.01587 0.33322,0.01587 0.61885,0.01587 0.76167,0 1.28531,-0.09521 0.52365,-0.111077 0.71407,-0.682327 0.19041,-0.587118 0.19041,-1.920036 v -0.285625 l -8.04511,-5.871185 v -4.887364 q 0,-1.428126 0.65059,-2.602363 0.66646,-1.174237 1.92004,-1.872431 1.25358,-0.698195 3.01493,-0.698195 h 6.56938 z"
           style="fill:#e6e2dd"
           id="path3855" />
        <path
           d="m 884.91416,34.12342 q 1.77722,0 3.01493,0.698195 1.25358,0.698194 1.92004,1.872431 0.66646,1.174237 0.66646,2.602363 v 6.743928 q -1.63442,1.523334 -3.76074,3.141877 -2.12632,1.602675 -3.93528,2.856252 v 4.823892 h -4.66521 V 34.12342 Z m 1.30118,10.107958 v -2.443682 q 0,-1.39639 -0.0635,-2.173926 -0.0635,-0.777535 -0.38084,-1.126632 -0.30149,-0.364966 -0.99968,-0.460174 -0.58712,-0.06347 -1.55507,-0.06347 h -0.39671 v 8.965457 q 1.71375,-1.063161 3.39577,-2.697571 z"
           style="fill:#e6e2dd"
           id="path3857" />
        <path
           d="m 904.25733,38.0587 -7.12476,-0.428438 v 8.53702 h 7.12476 v 3.93528 l -7.12476,-0.428438 v 3.665523 l 7.12476,-0.428437 v 3.93528 h -7.12476 l -4.64934,0.01587 v -6.759796 l -1.72962,-3.93528 h 1.72962 V 34.12342 h 11.7741 z"
           style="fill:#e6e2dd"
           id="path3859" />
        <path
           d="m 910.82672,37.630262 h -0.0159 v 12.916606 q 0,1.761355 0.65059,2.158057 0.55538,0.333229 2.20566,0.333229 0.38083,0 0.82514,-0.01587 h 2.33261 v 3.840072 h -5.07779 q -1.76135,0 -3.01493,-0.698195 -1.25358,-0.698195 -1.92003,-1.872432 -0.65059,-1.174236 -0.65059,-2.602362 V 34.12342 h 10.66334 v 3.93528 z"
           style="fill:#e6e2dd"
           id="path3861" />
        <path
           d="m 929.50343,34.12342 v 3.93528 l -3.71313,-0.380834 v 19.184492 h -4.66521 V 37.598526 l -3.95115,0.460174 v -3.93528 z"
           style="fill:#e6e2dd"
           id="path3863" />
      </g>
    </g>
  </g>
</svg>
